# xmcd
#
# Track frame offsets: 
#        150
#        17642
#        36449
#        55967
#        75482
#        95324
#        113279
#        130212
#        150059
#        167112
#        186624
#        205537
#        224417
#        243167
#        262322
#        281132
#
# Disc length: 3995 seconds
#
# Revision: 3
# Processed by: cddbd v1.5.2PL0 Copyright (c) Steve Scherf et al.
# Submitted via: ExactAudioCopy v0.99pb5
#
DISCID=d80f9910
DTITLE=Jelly Roll Morton - The Complete Library of Congress Recordings
DTITLE=[CD3]
DYEAR=2005
DGENRE=Ragtime, Dixieland and Jazz blues
TTITLE0=My Gal Sal
TTITLE1=The St. Louis Scene
TTITLE2=Maple Leaf Rag
TTITLE3=Jelly Roll Carves St. Louis, Pt. 1
TTITLE4=Jelly Roll Carves St. Louis, Pt. 2
TTITLE5=New Orleans Blues
TTITLE6=Winin' Boy Blues, Pt. 1
TTITLE7=Winin' Boy Blues, Pt. 2
TTITLE8=The Anamule Dance, Pt. 1
TTITLE9=The Anamule Dance, Pt. 2
TTITLE10=The Great Buddy Bolden, Pt. 1
TTITLE11=The Great Buddy Bolden, Pt. 2
TTITLE12=Mr. Jelly Lord
TTITLE13=How Jelly Roll Got His Name
TTITLE14=Original Jelly Roll Blues
TTITLE15=Honky Tonk BLues and Old-Time Honky Tonks
EXTD=YEAR: 2005
EXTT0=
EXTT1=
EXTT2=
EXTT3=
EXTT4=
EXTT5=
EXTT6=
EXTT7=
EXTT8=
EXTT9=
EXTT10=
EXTT11=
EXTT12=
EXTT13=
EXTT14=
EXTT15=
PLAYORDER=
